<svg xmlns="http://www.w3.org/2000/svg" width="232.094" height="106.097"><g fill-rule="evenodd" clip-rule="evenodd" fill="#011424"><path d="M82 1c5.938 2.941 8.636 7.549 8.077 14.316-.396 4.796-.049 9.65-.083 14.478-.05 7.142-3.37 10.854-10.663 11.922-.567-3.232-1.368-6.437 2.938-7.992.698-.252 1.393-1.623 1.405-2.486.094-6.652.439-13.345-.161-19.946-.354-3.903-4.15-4.138-7.473-4.134-16.98.023-33.961.01-50.942.01-3.663 0-7.326.045-10.988-.011-4.48-.067-6.885 2.023-6.927 6.557a878.01 878.01 0 00.001 15.482c.022 2.67.937 5.938 3.708 5.537 5.771-.833 7.356 3.466 10.035 6.61 1.16 1.362 2.226 2.805 3.46 4.37.249-.571.446-.805.433-1.025C24.243 35 24.241 35 34.233 35c4.662 0 9.339.235 13.979-.081 3.233-.22 2.915 1.569 2.997 3.657.092 2.331-.208 3.68-3.15 3.497-4.478-.278-9.004.18-13.474-.154-3.445-.259-3.735 1.124-3.367 3.979.765 5.934 1.229 11.905 1.8 17.863.06.627.008 1.265.008 3.239-5.676-7.151-10.686-13.4-15.62-19.709-2.245-2.869-4.281-5.714-8.479-6.063C5.118 40.913 3.61 37.139 1 35V9c.848-4.485 3.515-7.151 8-8h73zm148.918 38.951c-4.36.01-6.466 2.214-7.894 6.398-4.593 13.465-9.665 26.766-14.58 40.119C205.084 95.6 199.936 103.067 190 106h-9c-.05-4.161-.17-7.348 6.106-7.362 8.212-.019 14.995-12.167 12.002-19.854-4.392-11.276-8.849-22.528-13.155-33.837-.888-2.33-1.838-4.155-4.643-4.36-2.172-.158-2.329-1.688-2.37-3.541-.054-2.374 1.4-2.184 2.918-2.213 5.152-.099 10.304-.255 15.456-.3 1.535-.014 3.485-.56 3.549 2.162.047 2.005.014 3.617-2.664 3.644-3.367.033-3.832 1.401-2.625 4.605 3.387 8.985 6.328 18.139 9.832 28.354 3.397-10.534 6.425-20.004 9.519-29.452.767-2.341-.4-2.754-2.359-3.065-3.717-.593-4.556-2.685-2.588-5.893 6.268-.847 12.566-.359 18.843-.291 4.268.046 2.528 3.108 2.097 5.354zm-83.477 36.882c5.702 0 10.327-.161 14.935.057 3.015.143 4.823-.499 4.706-3.938-.113-3.349 1.86-4.021 4.833-3.84 3.574.217 2.153 2.816 2.191 4.411.236 9.991.174 9.992-9.596 9.992-6.988 0-13.98.124-20.964-.074-2.133-.061-5.292 1.504-6.271-1.055-1.098-2.871-.268-5.932 1.965-8.707 7.291-9.065 14.282-18.372 21.38-27.593.889-1.154 1.724-2.351 2.933-4.005-5.326-1.104-10.218-.396-15.056-.514-2.061-.051-2.409 1.623-2.364 3.139.113 3.955-2.576 3.471-5.099 3.472-3.356.001-1.94-2.536-1.977-3.976-.239-9.71-.185-9.711 9.323-9.711 6.989 0 13.979-.082 20.965.057 1.809.036 4.556-1.191 5.257 1.188.706 2.401.674 5.124-1.24 7.539-7.125 8.985-14.08 18.105-21.092 27.182-1.407 1.822-2.781 3.67-4.829 6.376zm-31.476-35.317c-3.397 0-6.549.028-9.699-.007-3.619-.041-7.384-.861-7.534 4.957-.075 2.917-3.164 1.401-4.918 1.659-2.13.313-1.728-1.374-1.821-2.641-.808-10.992-.812-10.992 10.109-10.992 6.657 0 13.314-.072 19.969.046 1.866.033 4.667-1.098 5.416.961.909 2.5.808 5.358-1.242 7.938-7.548 9.501-14.883 19.17-22.287 28.784-.98 1.273-1.896 2.597-3.358 4.608 6.02 0 11.255-.077 16.487.032 2.725.057 2.854-1.733 2.942-3.614.141-2.982 1.238-4.397 4.619-4.18 3.903.251 2.426 2.944 2.461 4.689.201 9.758.135 9.759-9.834 9.759-6.99 0-13.985.147-20.966-.091-2.067-.07-5.226 1.633-6.119-1.249-.843-2.72-.267-5.629 1.883-8.301 7.503-9.324 14.689-18.902 21.968-28.405.77-1.002 2.016-1.769 1.924-3.953z"/><path d="M73.842 55.643c0 4.333.024 8.665-.007 12.997-.03 4.229-1.086 8.908 5.496 9.425 2.096.164 1.457 2.281 1.472 3.683.023 2.079-1.622 1.747-2.877 1.754-6.166.035-12.331.021-18.496.014-1.318-.001-2.84.231-2.906-1.771-.054-1.643-.387-3.588 2.078-3.77 6.001-.441 6.141-4.369 5.958-9.066-.292-7.487-.246-15-.001-22.49.108-3.328-.569-5.086-4.245-4.418-3.046.555-3.941-.665-3.953-3.78-.013-3.319 1.643-3.348 4.02-3.244 4.3.188 9.906-1.356 12.553.794 2.803 2.276.658 8.106.885 12.377.132 2.491.023 4.996.023 7.495zm-5.531-27.501c-3.849-.09-6.848-3.187-6.799-7.02.048-3.772 3.179-6.905 6.948-6.951 3.9-.047 7.188 3.393 7.018 7.342-.166 3.827-3.292 6.719-7.167 6.629zm-46.957.007c-3.789.063-7.142-3.009-7.27-6.662-.137-3.9 3.271-7.367 7.191-7.315 3.777.05 6.846 3.179 6.869 7.004.023 3.932-2.872 6.907-6.79 6.973zm23.668-14c3.666.098 6.928 3.443 6.932 7.109.004 3.9-3.472 7.087-7.501 6.877-3.861-.201-6.688-3.311-6.561-7.214.12-3.693 3.464-6.869 7.13-6.772z"/></g></svg>